<svg width="39" height="26" viewBox="0 0 39 26" fill="none" xmlns="http://www.w3.org/2000/svg">
<g id="Asset 2 1">
<g id="Layer 2">
<g id="Layer 1">
<path id="Vector" d="M33.231 15.0098C32.4969 15.7444 31.8158 16.4274 31.1347 17.1187C31.0605 17.2007 31.0151 17.3047 31.0053 17.4149C30.911 18.7999 30.3243 19.4523 28.9553 19.6902C28.9199 19.6999 28.8856 19.7134 28.8532 19.7306C28.6556 21.4648 27.8875 22.2004 26.3191 22.1338C26.2656 22.8747 25.9922 23.51 25.3408 23.9264C24.7035 24.3336 24.0273 24.3482 23.3058 24.0787C23.2808 24.1367 23.2597 24.1964 23.2426 24.2572C22.9303 25.7425 21.4558 26.4362 20.1218 25.7099C19.3731 25.3022 18.6357 24.8731 17.9059 24.4324C17.6797 24.2962 17.5323 24.3005 17.347 24.4903C17.1109 24.7227 16.8628 24.9425 16.6036 25.1489C15.3689 26.1749 13.6595 25.6885 13.1467 24.1687C13.1273 24.1108 13.1059 24.0534 13.0752 23.9673C12.3698 24.3078 11.6678 24.3662 10.978 23.9921C10.3037 23.6263 9.94763 23.0328 9.83623 22.2559C9.11187 22.3887 8.45901 22.2559 7.90686 21.7694C7.37173 21.2985 7.11487 20.6933 7.11974 19.9889C5.09404 19.8347 4.36627 17.9851 5.24777 16.5539L4.40178 15.901C4.28406 16.0863 4.18773 16.2488 4.08071 16.404C3.87055 16.7095 3.6205 16.7844 3.29115 16.603C2.28658 16.0503 1.29221 15.4851 0.292015 14.9232C-0.0149529 14.749 -0.0387904 14.4878 0.0351543 14.1667C0.952328 10.1873 1.86496 6.20695 2.77305 2.22561C2.88932 1.71724 3.00316 1.2079 3.12867 0.701958C3.25613 0.178021 3.63996 0.0374292 4.07049 0.369207C6.14824 1.97069 8.21966 3.57996 10.2974 5.18242C10.5869 5.40523 10.6326 5.6689 10.492 6.04835C11.5214 5.98171 12.5085 5.94473 13.4902 5.84793C14.7312 5.72582 15.9649 5.51712 17.2073 5.4242C17.6695 5.39015 18.1463 5.58912 18.6181 5.65966C18.7903 5.68544 19.0112 5.70831 19.1435 5.62852C20.0844 5.04475 21.0408 4.9961 22.0658 5.39696C22.7873 5.67814 23.5423 5.87176 24.2754 6.12376C25.4094 6.51294 26.4787 6.34024 27.5426 5.78322C27.3606 5.37556 27.5761 5.13232 27.887 4.89346C29.8864 3.35651 31.881 1.81307 33.8707 0.263155C34.4433 -0.180027 34.7999 -0.0661907 34.9589 0.625581C35.9854 5.08853 37.0109 9.55181 38.0354 14.0154C38.1162 14.3662 38.0126 14.6026 37.6988 14.7763C36.7414 15.306 35.7913 15.8494 34.8339 16.3816C34.416 16.6132 34.1952 16.5519 33.9398 16.1515C33.7077 15.7891 33.4854 15.4208 33.231 15.0098ZM18.4148 23.5105C19.161 23.9391 19.902 24.3818 20.6589 24.7948C21.1814 25.0799 21.7681 24.914 22.0653 24.4397C22.3626 23.9653 22.2405 23.3932 21.7438 23.0323C21.4032 22.7856 21.053 22.555 20.7085 22.3147C19.7803 21.6663 18.8478 21.0231 17.9273 20.3639C17.6243 20.147 17.579 19.8556 17.758 19.6031C17.9303 19.3599 18.226 19.3234 18.5364 19.5058C18.624 19.5574 18.7096 19.6128 18.7928 19.6707C20.007 20.5101 21.2206 21.3497 22.4336 22.1897C22.852 22.4816 23.2606 22.7886 23.6902 23.0571C24.0283 23.2677 24.3999 23.2541 24.7419 23.0444C25.0839 22.8348 25.244 22.519 25.2318 22.1133C25.2196 21.7154 24.9964 21.4605 24.6904 21.2445C23.0898 20.1129 21.4926 18.9778 19.8985 17.8391C19.7404 17.7263 19.5459 17.5667 19.5152 17.4013C19.4826 17.2267 19.578 16.907 19.704 16.853C19.8985 16.7703 20.2235 16.7752 20.3938 16.89C21.5613 17.6815 22.707 18.51 23.8575 19.3287C24.5726 19.8376 25.2785 20.3605 26.0019 20.8577C26.212 21.0067 26.4678 21.0771 26.7245 21.0565C26.9813 21.036 27.2226 20.9258 27.4064 20.7453C27.7688 20.3936 27.8637 19.8361 27.5912 19.4168C27.4711 19.2314 27.2862 19.0762 27.1047 18.9444C25.1802 17.5443 23.253 16.1485 21.323 14.7568C20.9557 14.4907 20.8734 14.1993 21.0734 13.924C21.2733 13.6486 21.5633 13.6398 21.9447 13.904C22.3014 14.1502 22.6551 14.3992 23.0057 14.6512C24.7278 15.895 26.4504 17.1392 28.1735 18.384C28.8794 18.8928 29.8139 18.5299 29.9346 17.6946C30.0022 17.2237 29.777 16.8744 29.4131 16.5796C26.8907 14.534 24.3659 12.4932 21.8664 10.4184C21.4285 10.0564 21.0685 9.83461 20.5602 10.2306C20.4629 10.3055 20.3296 10.3352 20.2104 10.38C18.3846 11.0664 16.589 11.1321 14.8377 10.1314C14.4047 9.88375 14.1464 9.52424 14.1484 9.0222C14.1484 8.50264 14.4252 8.14021 14.8781 7.9033C15.4643 7.59682 16.0456 7.28401 16.6294 6.97364L17.4516 6.53581C17.4192 6.50997 17.3818 6.49104 17.3418 6.48016C17.3018 6.46929 17.26 6.4667 17.219 6.47256C14.8511 6.83348 12.4624 7.04148 10.0678 7.09526C9.8158 7.10109 9.71607 7.22417 9.60467 7.40612C8.10826 9.84791 6.6091 12.2879 5.10718 14.7262C5.05853 14.8093 5.00988 14.8964 4.95394 14.9957C5.24582 15.219 5.52993 15.414 5.78679 15.6393C5.97603 15.8061 6.10154 15.7692 6.26986 15.6115C6.6138 15.2895 6.96747 14.9767 7.33281 14.6799C8.52566 13.7123 10.2079 14.1871 10.7348 15.6325C10.7669 15.721 10.8043 15.8081 10.8413 15.9005C12.1431 15.1221 14.0735 15.8222 14.2116 17.8732C15.6346 17.9822 16.391 18.7659 16.4951 20.1728C18.0738 20.2058 19.3094 21.6993 18.4148 23.5105ZM28.1487 6.73526C28.106 6.74037 28.0636 6.74817 28.0218 6.75861C27.9391 6.79169 27.8559 6.82429 27.7756 6.86223C26.3887 7.51606 24.9891 7.54671 23.5544 7.00428C22.8067 6.72115 22.0327 6.50613 21.2704 6.2624C20.8647 6.13203 20.4638 6.14614 20.0849 6.34608C18.533 7.16434 16.9828 7.986 15.4341 8.81106C15.1296 8.97355 15.1286 9.07668 15.4268 9.2489C16.2016 9.70173 17.0973 9.90441 17.9916 9.82926C19.0268 9.75191 19.9754 9.40165 20.8705 8.89474C21.1687 8.72593 21.428 8.70988 21.7097 8.93998C24.6553 11.348 27.6058 13.7498 30.515 16.1204L32.6248 14.0144L28.1487 6.73526ZM4.00579 1.65302C3.95714 1.82378 3.92358 1.94491 3.89536 2.06458C3.59926 3.35278 3.3038 4.64146 3.009 5.93063C2.40252 8.58258 1.79799 11.235 1.1954 13.8879C1.17059 13.9984 1.19151 14.1978 1.26059 14.2387C1.96599 14.6585 2.68597 15.054 3.41812 15.4656L9.35948 5.79879L4.00579 1.65302ZM34.0658 1.45503L28.7023 5.61052L34.6437 15.2749C35.3311 14.8891 35.9893 14.5102 36.6582 14.1497C36.8698 14.0358 36.9321 13.9288 36.8718 13.6744C36.4408 11.8569 36.0326 10.0331 35.6157 8.21172C35.1049 5.98219 34.5931 3.75315 34.0658 1.45503ZM9.4558 21.2498C9.57986 21.1866 9.85861 21.1039 10.06 20.9331C10.96 20.166 11.8439 19.3793 12.722 18.5868C13.2221 18.1359 13.2489 17.5166 12.8193 17.0301C12.399 16.5568 11.7525 16.5042 11.2538 16.9367C10.3402 17.7272 9.43781 18.5309 8.53928 19.3385C8.18075 19.6605 8.09659 20.0954 8.2722 20.5196C8.44296 20.937 8.88079 21.245 9.4558 21.2498ZM10.834 22.0715C10.9235 22.5502 11.122 22.8771 11.5058 23.0673C11.9043 23.2653 12.3085 23.2347 12.649 22.9418C13.4688 22.2369 14.2836 21.5257 15.0814 20.7964C15.5193 20.3975 15.5193 19.7568 15.1257 19.3209C14.7321 18.8851 14.0992 18.8291 13.6507 19.2183C12.8412 19.9154 12.0351 20.6179 11.2558 21.3481C11.0602 21.5296 10.9717 21.8268 10.834 22.0715ZM5.86608 17.7491C5.93954 18.2458 6.15797 18.5761 6.55007 18.7707C6.96601 18.9789 7.36881 18.9167 7.72151 18.6117C8.27026 18.1383 8.81219 17.6567 9.35705 17.1751C9.86542 16.727 9.93791 16.0961 9.53656 15.6213C9.11722 15.1256 8.47847 15.0905 7.94626 15.5483C7.38633 16.0299 6.82055 16.5062 6.29224 17.0204C6.09862 17.2116 6.00522 17.5039 5.86608 17.7491ZM14.055 23.5022C14.1231 23.9795 14.3177 24.3069 14.6971 24.5053C15.0936 24.7126 15.4974 24.6805 15.8413 24.3949C16.3594 23.9649 16.8673 23.5192 17.3567 23.0586C17.7668 22.6694 17.7639 22.0277 17.3878 21.6108C17.0118 21.1939 16.3784 21.1272 15.9449 21.4916C15.4395 21.9173 14.936 22.3478 14.466 22.8109C14.2812 22.9929 14.1892 23.2692 14.055 23.5022Z" fill="#3BD770"/>
</g>
</g>
</g>
</svg>
