<svg width="205" height="34" viewBox="0 0 205 34" fill="none" xmlns="http://www.w3.org/2000/svg">
<g id="Group 320">
<g id="facebook-f 1">
<path id="Vector" d="M203.017 19.125L203.962 12.9718H198.057V8.97879C198.057 7.29539 198.882 5.65449 201.527 5.65449H204.211V0.415703C204.211 0.415703 201.775 0 199.446 0C194.584 0 191.406 2.94711 191.406 8.28219V12.9718H186.001V19.125H191.406V34H198.057V19.125H203.017Z" fill="#2477E1"/>
</g>
<g id="whatsapp 1">
<path id="Vector_2" d="M28.9076 4.94063C25.7277 1.75312 21.4929 0 16.9924 0C7.70312 0 0.144196 7.55893 0.144196 16.8482C0.144196 19.8156 0.918304 22.7147 2.39062 25.2723L0 34L8.93259 31.6549C11.3915 32.9982 14.1616 33.704 16.9848 33.704H16.9924C26.2741 33.704 34 26.1451 34 16.8558C34 12.3554 32.0875 8.12813 28.9076 4.94063ZM16.9924 30.8656C14.4728 30.8656 12.0062 30.1902 9.85848 28.9152L9.35 28.6116L4.05268 30.0004L5.46429 24.8321L5.13036 24.3009C3.72634 22.0696 2.99018 19.4969 2.99018 16.8482C2.99018 9.12991 9.27411 2.84598 17 2.84598C20.7415 2.84598 24.2554 4.30312 26.8964 6.95179C29.5375 9.60045 31.1616 13.1143 31.154 16.8558C31.154 24.5817 24.7107 30.8656 16.9924 30.8656ZM24.6728 20.3772C24.2554 20.1647 22.1835 19.1478 21.7964 19.0112C21.4094 18.867 21.1286 18.7987 20.8478 19.2237C20.567 19.6487 19.7625 20.5897 19.5121 20.8781C19.2692 21.1589 19.0188 21.1969 18.6013 20.9844C16.1272 19.7473 14.5031 18.7759 12.8714 15.9754C12.4388 15.2317 13.304 15.2848 14.1085 13.6759C14.2451 13.3951 14.1768 13.1522 14.0705 12.9397C13.9643 12.7272 13.1219 10.6554 12.7728 9.81295C12.4313 8.9933 12.0821 9.10714 11.8241 9.09196C11.5813 9.07679 11.3004 9.07679 11.0196 9.07679C10.7388 9.07679 10.2835 9.18304 9.89643 9.60045C9.50937 10.0254 8.42411 11.0424 8.42411 13.1143C8.42411 15.1862 9.93438 17.1897 10.1393 17.4705C10.3518 17.7513 13.1067 22.0013 17.3339 23.8304C20.0054 24.9839 21.0527 25.0826 22.3884 24.8853C23.2004 24.7638 24.8777 23.8683 25.2268 22.8817C25.5759 21.8951 25.5759 21.0527 25.4696 20.8781C25.371 20.6884 25.0902 20.5821 24.6728 20.3772Z" fill="#25E57C"/>
</g>
<g id="linkedin-in 1">
<path id="Vector_3" d="M69.6107 34H62.5616V11.2999H69.6107V34ZM66.0824 8.20344C63.8283 8.20344 62 6.33644 62 4.08237C62 2.99966 62.4301 1.96129 63.1957 1.1957C63.9613 0.430105 64.9997 0 66.0824 0C67.1651 0 68.2034 0.430105 68.969 1.1957C69.7346 1.96129 70.1647 2.99966 70.1647 4.08237C70.1647 6.33644 68.3357 8.20344 66.0824 8.20344ZM95.9932 34H88.9593V22.9498C88.9593 20.3162 88.9061 16.9389 85.2943 16.9389C81.6294 16.9389 81.0677 19.8001 81.0677 22.76V34H74.0263V11.2999H80.7869V14.3964H80.8856C81.8267 12.6129 84.1255 10.7307 87.5552 10.7307C94.6893 10.7307 96.0008 15.4286 96.0008 21.5305V34H95.9932Z" fill="#1380BA"/>
</g>
<g id="youtube 1">
<path id="Vector_4" d="M157.29 8.84061C156.899 7.36826 155.747 6.20869 154.284 5.81517C151.633 5.1001 141.001 5.1001 141.001 5.1001C141.001 5.1001 130.369 5.1001 127.717 5.81517C126.254 6.20875 125.102 7.36826 124.711 8.84061C124.001 11.5093 124.001 17.0774 124.001 17.0774C124.001 17.0774 124.001 22.6454 124.711 25.3141C125.102 26.7865 126.254 27.8977 127.717 28.2912C130.369 29.0063 141.001 29.0063 141.001 29.0063C141.001 29.0063 151.633 29.0063 154.284 28.2912C155.747 27.8977 156.899 26.7865 157.29 25.3141C158.001 22.6454 158.001 17.0774 158.001 17.0774C158.001 17.0774 158.001 11.5093 157.29 8.84061ZM137.523 22.1327V12.022L146.41 17.0775L137.523 22.1327Z" fill="#FC0D1B"/>
</g>
</g>
</svg>
