<svg width="38" height="24" viewBox="0 0 38 24" fill="none" xmlns="http://www.w3.org/2000/svg">
<g id="SR">
<path d="M16.4449 16.3825C16.4449 19.9015 13.6297 23.0686 8.54303 23.0686C3.90428 23.0686 0.321246 20.6373 0.257263 16.4144H5.05597C5.18393 18.206 6.36761 19.3896 8.44705 19.3896C10.5585 19.3896 11.8061 18.2699 11.8061 16.6704C11.8061 11.8397 0.289255 14.7509 0.321246 6.65708C0.321246 2.62617 3.58436 0.194824 8.19112 0.194824C12.7659 0.194824 15.901 2.53019 16.189 6.5611H11.2623C11.1663 5.0895 9.98264 3.93781 8.06316 3.90582C6.30363 3.84184 4.99198 4.7056 4.99198 6.52911C4.99198 11.0079 16.4449 8.51258 16.4449 16.3825Z" fill="white"/>
<path d="M32.1646 7.45686C32.1646 5.4734 31.0449 4.22573 28.5496 4.22573H24.8066V10.784H28.5496C31.0449 10.784 32.1646 9.47232 32.1646 7.45686ZM20.3278 0.514737H28.7096C34.0841 0.514737 36.7714 3.6179 36.7714 7.36089C36.7714 10.0802 35.2678 12.8314 31.6848 13.7912L37.0273 22.8447H31.8447L26.9181 14.1431H24.8066V22.8447H20.3278V0.514737Z" fill="white"/>
</g>
</svg>
