<svg width="50" height="50" viewBox="0 0 50 50" fill="none" xmlns="http://www.w3.org/2000/svg">
<g id="e-commerce 1" clip-path="url(#clip0_6_139)">
<g id="Clip path group">
<mask id="mask0_6_139" style="mask-type:luminance" maskUnits="userSpaceOnUse" x="0" y="0" width="50" height="50">
<g id="clip0_1280_4998">
<path id="Vector" d="M50 0H0V50H50V0Z" fill="white"/>
</g>
</mask>
<g mask="url(#mask0_6_139)">
<g id="Group">
<path id="Vector_2" d="M47.3969 30.6031C47.0038 30.0007 46.4018 29.565 45.7068 29.3797C45.0118 29.1943 44.2729 29.2725 43.632 29.5992L39.3602 31.7867C39.6516 32.4809 39.6833 33.2569 39.4493 33.9726C39.2153 34.6883 38.7313 35.2957 38.0859 35.6836L29.3914 40.8398C27.3525 42.0547 24.9239 42.4374 22.6102 41.9086L14.7539 40.0281L15.1172 38.5086L22.9578 40.3836C24.8809 40.821 26.8985 40.503 28.5938 39.4953L37.2875 34.339C37.6426 34.127 37.8997 33.7835 38.0033 33.3831C38.1068 32.9827 38.0484 32.5576 37.8406 32.2C37.3863 31.4134 36.6469 30.8316 35.7756 30.5749C34.9042 30.3183 33.9676 30.4064 33.1594 30.8211L26.8539 34.057C26.4128 34.2837 25.9234 34.4004 25.4274 34.3972C24.9314 34.3939 24.4436 34.2708 24.0055 34.0383L19.7086 31.7562C18.2842 31.0028 16.687 30.6362 15.0766 30.6931C13.4662 30.75 11.8989 31.2284 10.5312 32.0805L12.9812 43.7594L14.2859 43.4781C14.9711 43.3308 15.6765 43.3028 16.3711 43.3953L26.1297 44.4656C27.9653 44.7104 29.8271 44.2752 31.3641 43.2422L46.968 32.7734C47.31 32.5406 47.5469 32.1827 47.6276 31.7769C47.7083 31.3711 47.6263 30.9498 47.3992 30.6039L47.3969 30.6031Z" fill="white"/>
<path id="Vector_3" d="M2.34375 30.8493L5.87031 47.6564L11.932 46.3517L8.40469 29.5447L2.34375 30.8493ZM5.41172 34.1775L5.09063 32.6493L6.61953 32.3282L6.94063 33.8556L5.41172 34.1775Z" fill="white"/>
<path id="Vector_4" fill-rule="evenodd" clip-rule="evenodd" d="M11.3054 2.40055L7.34058 0.0774978C7.27749 0.0402094 7.20766 0.0157365 7.13509 0.00548118C7.06252 -0.00477413 6.98864 -0.000610299 6.91768 0.0177341C6.84672 0.0360785 6.78008 0.068243 6.72158 0.112385C6.66307 0.156527 6.61385 0.211778 6.57673 0.274975C6.53961 0.338171 6.51533 0.408069 6.50527 0.480666C6.49521 0.553263 6.49958 0.627131 6.51811 0.698038C6.53665 0.768945 6.569 0.835499 6.6133 0.893885C6.6576 0.952271 6.71298 1.00134 6.77628 1.03829L10.5437 3.24944L16.1142 23.8798C15.76 24.3051 15.5107 24.8075 15.3861 25.3467C15.2615 25.8859 15.2652 26.4468 15.3968 26.9843C15.5285 27.5218 15.7844 28.0209 16.1441 28.4415C16.5038 28.862 16.9571 29.1923 17.4677 29.4058C17.536 29.4343 17.6092 29.449 17.6832 29.4489H20.1619C19.5065 29.6381 18.9415 30.0576 18.5708 30.6302C18.75 30.75 19 30.75 19.5 31C19.6976 31.0988 19.9078 31.2039 20.5 31.5C21 31.75 21.75 32 21.75 32C21.75 32 22.5 32.5 23 32.75C23.5552 33.0276 23.6546 33.2407 23.7502 32.5653C23.8457 31.89 23.6942 31.2028 23.3235 30.6302C22.9528 30.0576 22.3878 29.6381 21.7324 29.4489H31.7693C31.1139 29.6381 30.5489 30.0576 30.1782 30.6302C29.8075 31.2028 29.75 31.75 29.75 32L30.5 31.5L31.5 31L32.5 30.5L33.25 30.25C33.25 30.25 34 30 34.25 30C34 29.75 33.5 29.5 33.3398 29.4489H35.8682C35.942 29.4497 36.0152 29.4359 36.0836 29.4082C36.152 29.3806 36.2142 29.3396 36.2667 29.2877C36.3192 29.2358 36.3608 29.174 36.3892 29.106C36.4177 29.0379 36.4323 28.9648 36.4323 28.891C36.4323 28.8172 36.4177 28.7442 36.3892 28.6761C36.3608 28.608 36.3192 28.5462 36.2667 28.4943C36.2142 28.4424 36.152 28.4014 36.0836 28.3738C36.0152 28.3461 35.942 28.3323 35.8682 28.3331H17.8014C17.463 28.1738 17.1661 27.9383 16.9339 27.6451C16.7018 27.3518 16.5407 27.0088 16.4633 26.6429C16.386 26.2769 16.3944 25.8981 16.488 25.5359C16.5816 25.1738 16.7578 24.8383 17.0028 24.5557L36.7314 22.0441C36.8503 22.0289 36.9612 21.9758 37.0476 21.8926C37.134 21.8095 37.1913 21.7007 37.2111 21.5825L39.3781 8.63165C39.391 8.55486 39.3877 8.47623 39.3684 8.4008C39.3491 8.32537 39.3142 8.25481 39.266 8.19365C39.2179 8.1325 39.1574 8.08209 39.0886 8.04568C39.0198 8.00927 38.9441 7.98766 38.8664 7.98223C30.0942 7.38742 21.3219 6.79246 12.5496 6.19737C12.5315 6.19669 12.5133 6.19607 12.4949 6.19669L11.5614 2.73613C11.5222 2.59565 11.4305 2.47556 11.3054 2.40055ZM32.7423 6.44818L22.7087 5.76787V3.60177H32.7423V6.44818ZM21.5926 5.6922L17.0522 5.38458V0.406511H24.2158V2.48607H22.1507C22.0773 2.48612 22.0047 2.50063 21.9369 2.52877C21.8691 2.55691 21.8076 2.59814 21.7557 2.65009C21.7039 2.70204 21.6628 2.7637 21.6348 2.83154C21.6068 2.89938 21.5925 2.97207 21.5926 3.04546V5.6922Z" fill="white"/>
</g>
</g>
</g>
</g>
<defs>
<clipPath id="clip0_6_139">
<rect width="50" height="50" fill="white"/>
</clipPath>
</defs>
</svg>
