<svg width="50" height="50" viewBox="0 0 50 50" fill="none" xmlns="http://www.w3.org/2000/svg">
<g id="engineering 1" clip-path="url(#clip0_6_178)">
<g id="Clip path group">
<mask id="mask0_6_178" style="mask-type:luminance" maskUnits="userSpaceOnUse" x="0" y="0" width="50" height="50">
<g id="clip0_1280_4941">
<path id="Vector" d="M50 0H0V50H50V0Z" fill="white"/>
</g>
</mask>
<g mask="url(#mask0_6_178)">
<g id="Group">
<path id="Vector_2" d="M47.3969 30.6031C47.0038 30.0007 46.4018 29.565 45.7068 29.3797C45.0118 29.1943 44.2729 29.2725 43.632 29.5992L39.3602 31.7867C39.6516 32.4809 39.6833 33.2569 39.4493 33.9726C39.2153 34.6883 38.7313 35.2957 38.0859 35.6836L29.3914 40.8398C27.3525 42.0547 24.9239 42.4374 22.6102 41.9086L14.7539 40.0281L15.1172 38.5086L22.9578 40.3836C24.8809 40.821 26.8985 40.503 28.5938 39.4953L37.2875 34.339C37.6426 34.127 37.8997 33.7835 38.0033 33.3831C38.1068 32.9827 38.0484 32.5576 37.8406 32.2C37.3863 31.4134 36.6469 30.8316 35.7756 30.5749C34.9042 30.3183 33.9676 30.4064 33.1594 30.8211L26.8539 34.057C26.4128 34.2837 25.9234 34.4004 25.4274 34.3972C24.9314 34.3939 24.4436 34.2708 24.0055 34.0383L19.7086 31.7562C18.2842 31.0028 16.687 30.6362 15.0766 30.6931C13.4662 30.75 11.8989 31.2284 10.5312 32.0805L12.9812 43.7594L14.2859 43.4781C14.9711 43.3308 15.6765 43.3028 16.3711 43.3953L26.1297 44.4656C27.9653 44.7104 29.8271 44.2752 31.3641 43.2422L46.968 32.7734C47.31 32.5406 47.5469 32.1827 47.6276 31.7769C47.7083 31.3711 47.6263 30.9498 47.3992 30.6039L47.3969 30.6031Z" fill="white"/>
<path id="Vector_3" d="M2.34375 30.8493L5.87031 47.6564L11.932 46.3517L8.40469 29.5447L2.34375 30.8493ZM5.41172 34.1775L5.09063 32.6493L6.61953 32.3282L6.94063 33.8556L5.41172 34.1775Z" fill="white"/>
<g id="Clip path group_2">
<mask id="mask1_6_178" style="mask-type:luminance" maskUnits="userSpaceOnUse" x="8" y="0" width="34" height="35">
<g id="clip1_1280_4941">
<path id="Vector_4" d="M42 0.5H8V34.5H42V0.5Z" fill="white"/>
</g>
</mask>
<g mask="url(#mask1_6_178)">
<g id="Group_2">
<path id="Vector_5" d="M10.0488 16.4916V17.4884C10.0488 17.9332 10.3437 18.3246 10.7721 18.4472C11.0621 18.53 17.9646 20.4787 25.0005 20.4787C32.0363 20.4787 38.9388 18.53 39.2288 18.4472C39.6571 18.3246 39.9521 17.9333 39.9521 17.4884V16.4916C39.9521 15.9407 39.5063 15.4949 38.9553 15.4949H11.0456C10.4947 15.4949 10.0488 15.9407 10.0488 16.4916Z" fill="white"/>
<path id="Vector_6" d="M37.9591 23.4689C37.9591 24.0198 37.5133 24.4657 36.9623 24.4657H35.549C35.3173 25.2804 34.9893 26.066 34.5678 26.8135L35.5734 27.8191C35.9627 28.2084 35.9627 28.8392 35.5734 29.2286C33.6457 28.7073 29.251 30.9999 27.751 31.7499C26.251 32.4999 25.251 32.7499 24.251 32.2499C23.451 31.8499 20.859 30.6113 19.6629 30.0421C18.5924 29.531 15.7275 29.2868 14.4288 29.2286C14.0395 28.8392 14.0395 28.2084 14.4288 27.8191L15.4344 26.8135C15.0129 26.066 14.6848 25.2804 14.4532 24.4657H13.0397C12.4888 24.4657 12.043 24.0198 12.043 23.4689V20.8264C13.4582 21.1604 15.5884 21.6076 18.0719 21.9534C18.3229 25.574 21.3178 28.4528 25.001 28.4528C28.6843 28.4528 31.6792 25.574 31.9302 21.9534C34.4132 21.6076 36.5436 21.1607 37.9591 20.8266V23.4689Z" fill="white"/>
<path id="Vector_7" d="M23.4165 11.4191C22.9144 11.6463 22.3231 11.4214 22.0985 10.9207L18.9868 3.95487C15.4292 5.82688 12.8744 9.37919 12.2344 13.5013H37.766C37.126 9.37919 34.5712 5.82682 31.0136 3.95487L27.902 10.9207C27.6772 11.4218 27.0855 11.6461 26.5839 11.4191C26.0826 11.1933 25.8588 10.6034 26.0856 10.1011L29.5299 2.39651C29.7775 1.84736 29.4925 1.17766 28.9112 1.0201C26.3535 0.326611 23.6466 0.326612 21.0889 1.02023C20.5075 1.17779 20.2226 1.84749 20.4702 2.39665L23.9149 10.1011C24.1417 10.6034 23.9188 11.1933 23.4165 11.4191Z" fill="white"/>
</g>
</g>
</g>
</g>
</g>
</g>
</g>
<defs>
<clipPath id="clip0_6_178">
<rect width="50" height="50" fill="white"/>
</clipPath>
</defs>
</svg>
