<svg width="50" height="50" viewBox="0 0 50 50" fill="none" xmlns="http://www.w3.org/2000/svg">
<g id="financial-services 1">
<path id="Vector" d="M47.3969 30.6031C47.0038 30.0007 46.4018 29.565 45.7068 29.3797C45.0118 29.1943 44.2729 29.2725 43.632 29.5992L39.3602 31.7867C39.6516 32.4809 39.6833 33.2569 39.4493 33.9726C39.2153 34.6883 38.7313 35.2957 38.0859 35.6836L29.3914 40.8398C27.3525 42.0547 24.9239 42.4374 22.6102 41.9086L14.7539 40.0281L15.1172 38.5086L22.9578 40.3836C24.8809 40.821 26.8985 40.503 28.5938 39.4953L37.2875 34.339C37.6426 34.127 37.8997 33.7835 38.0033 33.3831C38.1068 32.9827 38.0484 32.5576 37.8406 32.2C37.3863 31.4134 36.6469 30.8316 35.7756 30.5749C34.9042 30.3183 33.9676 30.4064 33.1594 30.8211L26.8539 34.057C26.4128 34.2837 25.9234 34.4004 25.4274 34.3972C24.9314 34.3939 24.4436 34.2708 24.0055 34.0383L19.7086 31.7562C18.2842 31.0028 16.687 30.6362 15.0766 30.6931C13.4662 30.75 11.8989 31.2284 10.5312 32.0805L12.9812 43.7594L14.2859 43.4781C14.9711 43.3308 15.6765 43.3028 16.3711 43.3953L26.1297 44.4656C27.9653 44.7104 29.8271 44.2752 31.3641 43.2422L46.968 32.7734C47.31 32.5406 47.5469 32.1827 47.6276 31.7769C47.7083 31.3711 47.6263 30.9498 47.3992 30.6039L47.3969 30.6031Z" fill="white"/>
<path id="Vector_2" d="M2.34375 30.8493L5.87031 47.6564L11.932 46.3517L8.40469 29.5447L2.34375 30.8493ZM5.41172 34.1775L5.09063 32.6493L6.61953 32.3282L6.94063 33.8556L5.41172 34.1775Z" fill="white"/>
<path id="Vector_3" fill-rule="evenodd" clip-rule="evenodd" d="M13.2372 26.9989C11.625 22.8721 12.7416 17.9983 15.7624 14.1395L20.7165 7.81103H27.7839L32.738 14.1395C36.347 18.7497 37.2376 24.3088 34.0038 28.8118C33.25 29.5 32.25 30 31.75 30.25L27 32.75C25.75 33.25 24.75 33 24 32.5C19.5 30.25 17.25 29.5 14.5 29.25C13.5597 28.6034 13.75 28.5 13.2372 26.9989ZM21.8695 25.2434C22.3923 25.727 22.8924 26.0976 23.611 26.2327L23.6259 26.835C23.6343 27.188 23.933 27.4673 24.2929 27.459C24.6528 27.4508 24.9377 27.1579 24.9293 26.805L24.9149 26.2207C26.1787 25.9585 27.2153 24.9348 27.2153 23.6236C27.2153 22.0601 25.7757 20.9587 24.2502 20.9587C23.4459 20.9587 22.5935 20.4311 22.5935 19.5768C22.5935 18.7244 23.447 18.1924 24.2502 18.1924C24.633 18.1924 25.5399 18.5169 25.756 18.8392C25.9536 19.1339 26.3575 19.2158 26.6581 19.0221C26.9588 18.8284 27.0422 18.4323 26.8446 18.1376C26.4537 17.5543 25.5749 17.1552 24.8916 16.9973L24.8744 16.291C24.866 15.9381 24.5673 15.6587 24.2074 15.667C23.8475 15.6752 23.5626 15.9681 23.571 16.321L23.5871 16.9815C22.3214 17.2417 21.285 18.2645 21.285 19.5769C21.285 21.1403 22.7248 22.2418 24.2501 22.2418C25.0544 22.2418 25.9068 22.7695 25.9068 23.6238C25.9068 24.4781 25.0544 25.0058 24.2501 25.0058C23.5666 25.0058 23.2423 24.7541 22.7639 24.3115C22.5014 24.0693 22.0884 24.0817 21.8414 24.3391C21.5945 24.5961 21.6071 25.0012 21.8695 25.2434ZM20.8428 6.52813L18.5918 2.68649C18.4123 2.38004 18.6365 2 18.997 2H29.5032C29.8637 2 30.088 2.38004 29.9083 2.68649L27.6575 6.52813H20.8428Z" fill="white"/>
</g>
</svg>
