<svg width="50" height="50" viewBox="0 0 50 50" fill="none" xmlns="http://www.w3.org/2000/svg">
<g id="health-care 1">
<path id="Vector" d="M31.3531 14.4531L29.0304 10.3906L24.9445 20.607C24.8858 20.7512 24.7853 20.8746 24.656 20.9614C24.5267 21.0481 24.3744 21.0942 24.2187 21.0938H24.1867C24.0257 21.0874 23.8706 21.0315 23.7426 20.9336C23.6146 20.8357 23.5201 20.7006 23.4718 20.5469L20.8593 12.0609L19.4164 14.4648C19.3472 14.5799 19.2496 14.6753 19.1328 14.7417C19.0161 14.808 18.8842 14.8432 18.75 14.8438H13.2812V13.2812H18.3078L20.4242 9.75391C20.5019 9.62453 20.6154 9.52045 20.7511 9.45422C20.8867 9.388 21.0386 9.36247 21.1884 9.38074C21.3382 9.399 21.4795 9.46026 21.5953 9.55713C21.711 9.65399 21.7962 9.78231 21.8406 9.92656L24.3148 17.9688L28.1804 8.30391C28.2347 8.16682 28.3266 8.04787 28.4456 7.96081C28.5645 7.87375 28.7057 7.82213 28.8528 7.81192C28.9999 7.8017 29.1468 7.83331 29.2767 7.90309C29.4066 7.97287 29.514 8.07797 29.5867 8.20625L32.4843 13.2812H39.5156C40.7586 8.11172 38.0156 5.35703 38.0156 5.35703C37.3174 4.42278 36.4112 3.66405 35.3688 3.141C34.3264 2.61796 33.1764 2.34499 32.0101 2.34375C28.0047 2.34375 25 5.35703 25 5.35703C25 5.35703 21.9953 2.34375 17.9898 2.34375C16.823 2.34451 15.6724 2.61724 14.6294 3.1403C13.5864 3.66337 12.6797 4.42236 11.9812 5.35703C11.9812 5.35703 2.96873 14.3977 25 30.4688C33.7 24.1227 37.557 18.8734 39.0414 14.8438H32.0312C31.8938 14.844 31.7588 14.8081 31.6397 14.7395C31.5207 14.6709 31.4218 14.5721 31.3531 14.4531Z" fill="white"/>
<path id="Vector_2" d="M46.0934 11.7188C45.6103 11.7208 45.1397 11.8719 44.7459 12.1516C44.3521 12.4313 44.0544 12.8259 43.8934 13.2813H39.5184C39.3896 13.8109 39.2302 14.3326 39.041 14.8438H43.8934C44.0373 15.2478 44.2895 15.6045 44.6224 15.8749C44.9554 16.1453 45.3562 16.319 45.7812 16.377C46.2062 16.4349 46.6389 16.375 47.0321 16.2037C47.4253 16.0324 47.7639 15.7563 48.0108 15.4055C48.2577 15.0548 48.4035 14.643 48.4321 14.215C48.4608 13.7871 48.3713 13.3595 48.1734 12.979C47.9755 12.5984 47.6768 12.2796 47.31 12.0574C46.9431 11.8351 46.5223 11.718 46.0934 11.7188ZM46.0934 14.8438C45.9388 14.8438 45.7878 14.7979 45.6593 14.7121C45.5308 14.6262 45.4307 14.5042 45.3716 14.3615C45.3124 14.2187 45.297 14.0616 45.3271 13.9101C45.3573 13.7585 45.4317 13.6193 45.5409 13.5101C45.6502 13.4008 45.7894 13.3264 45.9409 13.2963C46.0925 13.2661 46.2496 13.2816 46.3923 13.3407C46.5351 13.3999 46.6571 13.5 46.7429 13.6285C46.8288 13.7569 46.8746 13.908 46.8746 14.0625C46.8746 14.2697 46.7923 14.4684 46.6458 14.6149C46.4993 14.7614 46.3006 14.8438 46.0934 14.8438Z" fill="white"/>
<path id="Vector_3" d="M7.8125 13.2812H1.5625V14.8438H7.8125V13.2812Z" fill="white"/>
<path id="Vector_4" d="M47.3969 30.6031C47.0038 30.0007 46.4018 29.565 45.7068 29.3797C45.0118 29.1943 44.2729 29.2725 43.632 29.5992L39.3602 31.7867C39.6516 32.4809 39.6833 33.2569 39.4493 33.9726C39.2153 34.6883 38.7313 35.2957 38.0859 35.6836L29.3914 40.8398C27.3525 42.0547 24.9239 42.4374 22.6102 41.9086L14.7539 40.0281L15.1172 38.5086L22.9578 40.3836C24.8809 40.821 26.8985 40.503 28.5937 39.4953L37.2875 34.339C37.6426 34.127 37.8997 33.7835 38.0033 33.3831C38.1068 32.9827 38.0484 32.5576 37.8406 32.2C37.3863 31.4134 36.6469 30.8316 35.7756 30.5749C34.9042 30.3183 33.9676 30.4064 33.1594 30.8211L26.8539 34.057C26.4128 34.2837 25.9234 34.4004 25.4274 34.3972C24.9314 34.3939 24.4436 34.2708 24.0055 34.0383L19.7086 31.7562C18.2842 31.0028 16.687 30.6362 15.0766 30.6931C13.4662 30.75 11.8989 31.2284 10.5312 32.0805L12.9812 43.7594L14.2859 43.4781C14.9711 43.3308 15.6765 43.3028 16.3711 43.3953L26.1297 44.4656C27.9653 44.7104 29.8271 44.2752 31.3641 43.2422L46.968 32.7734C47.31 32.5406 47.5469 32.1827 47.6276 31.7769C47.7083 31.3711 47.6263 30.9498 47.3992 30.6039L47.3969 30.6031Z" fill="white"/>
<path id="Vector_5" d="M2.34375 30.8493L5.87031 47.6564L11.932 46.3517L8.40469 29.5447L2.34375 30.8493ZM5.41172 34.1775L5.09063 32.6493L6.61953 32.3282L6.94063 33.8556L5.41172 34.1775Z" fill="white"/>
</g>
</svg>
