<svg width="50" height="50" viewBox="0 0 50 50" fill="none" xmlns="http://www.w3.org/2000/svg">
<g id="manufacturing 1" clip-path="url(#clip0_6_124)">
<g id="Clip path group">
<mask id="mask0_6_124" style="mask-type:luminance" maskUnits="userSpaceOnUse" x="0" y="0" width="50" height="50">
<g id="clip0_1280_4988">
<path id="Vector" d="M50 0H0V50H50V0Z" fill="white"/>
</g>
</mask>
<g mask="url(#mask0_6_124)">
<g id="Group">
<g id="Clip path group_2">
<mask id="mask1_6_124" style="mask-type:luminance" maskUnits="userSpaceOnUse" x="0" y="0" width="50" height="50">
<g id="clip1_1280_4988">
<path id="Vector_2" d="M50 0H0V50H50V0Z" fill="white"/>
</g>
</mask>
<g mask="url(#mask1_6_124)">
<g id="Group_2">
<path id="Vector_3" d="M47.3969 30.6031C47.0038 30.0007 46.4018 29.565 45.7068 29.3797C45.0118 29.1943 44.2729 29.2725 43.632 29.5992L39.3602 31.7867C39.6516 32.4809 39.6833 33.2569 39.4493 33.9726C39.2153 34.6883 38.7313 35.2957 38.0859 35.6836L29.3914 40.8398C27.3525 42.0547 24.9239 42.4374 22.6102 41.9086L14.7539 40.0281L15.1172 38.5086L22.9578 40.3836C24.8809 40.821 26.8985 40.503 28.5938 39.4953L37.2875 34.339C37.6426 34.127 37.8997 33.7835 38.0033 33.3831C38.1068 32.9827 38.0484 32.5576 37.8406 32.2C37.3863 31.4134 36.6469 30.8316 35.7756 30.5749C34.9042 30.3183 33.9676 30.4064 33.1594 30.8211L26.8539 34.057C26.4128 34.2837 25.9234 34.4004 25.4274 34.3972C24.9314 34.3939 24.4436 34.2708 24.0055 34.0383L19.7086 31.7562C18.2842 31.0028 16.687 30.6362 15.0766 30.6931C13.4662 30.75 11.8989 31.2284 10.5312 32.0805L12.9812 43.7594L14.2859 43.4781C14.9711 43.3308 15.6765 43.3028 16.3711 43.3953L26.1297 44.4656C27.9653 44.7104 29.8271 44.2752 31.3641 43.2422L46.968 32.7734C47.31 32.5406 47.5469 32.1827 47.6276 31.7769C47.7083 31.3711 47.6263 30.9498 47.3992 30.6039L47.3969 30.6031Z" fill="white"/>
<path id="Vector_4" d="M2.34375 30.8493L5.87031 47.6564L11.932 46.3517L8.40469 29.5447L2.34375 30.8493ZM5.41172 34.1775L5.09063 32.6493L6.61953 32.3282L6.94063 33.8556L5.41172 34.1775Z" fill="white"/>
<path id="Vector_5" d="M24.0785 23.0234H22.9066C21.1972 23.0234 19.5578 23.7025 18.3491 24.9112C17.1403 26.12 16.4613 27.7593 16.4613 29.4688V29.75C16.4519 29.8292 16.4351 29.9246 16.4612 30C16.4873 30.0754 18.0003 30 19.2503 30.75C20.5003 31.5 21.0881 31.7725 21.1635 31.7986C21.2388 31.8247 22.5002 32.5 22.5002 32.5L23.5002 33C24.0002 33.25 24.7502 33.75 25.2502 33.75C25.9666 33.75 29.1938 32.0564 29.2502 32C29.3067 31.9436 30.4354 31.437 30.5002 31.25C30.5264 31.1746 30.5078 30.0792 30.4984 30L30.5238 29.4688C30.5238 27.7593 29.8447 26.12 28.636 24.9112C27.4273 23.7025 25.7879 23.0234 24.0785 23.0234ZM26.305 29.6445C26.1562 30.2059 25.8439 30.7104 25.4078 31.094C24.9717 31.4775 24.4314 31.7228 23.8556 31.7986C23.2797 31.8744 22.6944 31.7773 22.1738 31.5198C21.6533 31.2622 21.2211 30.8557 20.932 30.352C20.643 29.8482 20.5102 29.2699 20.5505 28.6905C20.5908 28.1111 20.8025 27.5568 21.1585 27.098C21.5145 26.6391 21.9989 26.2964 22.5501 26.1135C23.1013 25.9305 23.6945 25.9155 24.2542 26.0703C24.6266 26.1652 24.9762 26.3339 25.2822 26.5663C25.5882 26.7988 25.8444 27.0903 26.0356 27.4237C26.2269 27.757 26.3493 28.1253 26.3955 28.5068C26.4418 28.8883 26.411 29.2752 26.305 29.6445Z" fill="white"/>
<path id="Vector_6" d="M34.9176 15.0546C34.6166 15.2285 34.374 15.4877 34.2203 15.7994C34.0666 16.1112 34.0087 16.4615 34.0541 16.8061C34.0994 17.1507 34.2459 17.4741 34.4751 17.7355C34.7042 17.9969 35.0057 18.1844 35.3414 18.2745C35.6771 18.3646 36.032 18.3531 36.3611 18.2415C36.6903 18.1299 36.979 17.9233 37.1908 17.6476C37.4026 17.372 37.5279 17.0398 37.5508 16.693C37.5738 16.3462 37.4935 16.0003 37.32 15.6991C37.0766 15.3063 36.6927 15.0209 36.2464 14.9012C35.8001 14.7814 35.3249 14.8363 34.9176 15.0546Z" fill="white"/>
<path id="Vector_7" d="M23.4922 5.15234C23.9776 5.15234 24.3711 4.75884 24.3711 4.27344C24.3711 3.78803 23.9776 3.39453 23.4922 3.39453C23.0068 3.39453 22.6133 3.78803 22.6133 4.27344C22.6133 4.75884 23.0068 5.15234 23.4922 5.15234Z" fill="white"/>
<path id="Vector_8" d="M39.8977 14.2344C39.3722 13.3505 38.5739 12.6612 37.6229 12.2703C36.6718 11.8793 35.6195 11.8077 34.6243 12.0664L27.0071 4.44922V4.27344C27.0071 3.34104 26.6367 2.44682 25.9774 1.78752C25.3181 1.12821 24.4239 0.757813 23.4915 0.757812C22.5591 0.757813 21.6649 1.12821 21.0056 1.78752C20.3463 2.44682 19.9759 3.34104 19.9759 4.27344C19.9731 4.80167 20.0934 5.32329 20.3274 5.79688L18.4524 9.07812C18.0063 9.12678 17.5778 9.27934 17.2013 9.52356C16.8248 9.76778 16.5108 10.0969 16.2845 10.4844C16.2259 10.543 16.2259 10.543 16.2259 10.6016L12.1829 11.0117C12.1058 11.019 12.0309 11.0416 11.9626 11.078C11.8943 11.1144 11.8338 11.1641 11.7848 11.224C11.7358 11.2839 11.6991 11.353 11.6769 11.4272C11.6547 11.5014 11.6475 11.5792 11.6556 11.6562L12.3587 17.457C12.3842 17.5974 12.4556 17.7253 12.5616 17.8207C12.6677 17.9162 12.8024 17.9737 12.9446 17.9844C13.0629 17.9755 13.1775 17.939 13.2792 17.878C13.3809 17.8169 13.467 17.733 13.5306 17.6328L14.9368 14.0586L16.5774 13.8828C16.8037 14.1283 17.0596 14.3448 17.3391 14.5273L18.2766 14.8203L18.9212 16.4023L16.5774 19.3906C16.5121 19.4777 16.4724 19.5812 16.4626 19.6896C16.4528 19.7979 16.4734 19.9069 16.5221 20.0042C16.5708 20.1016 16.6456 20.1834 16.7381 20.2406C16.8307 20.2978 16.9374 20.3281 17.0462 20.3281C17.222 20.3281 17.0462 20.3281 22.6126 17.9844C22.7657 17.9194 22.8878 17.7978 22.9533 17.6449C23.0188 17.492 23.0227 17.3197 22.9641 17.1641L21.2649 13.5312V13.4141C21.471 13.0858 21.6038 12.717 21.6544 12.3327C21.7049 11.9485 21.672 11.5579 21.5579 11.1875C21.5462 11.0629 21.5061 10.9427 21.4407 10.8359L23.1985 7.78906H23.6087L31.2259 15.4062C31.1584 15.6749 31.1191 15.9498 31.1087 16.2266L25.3665 21.9688C26.577 22.1842 27.7167 22.6918 28.6867 23.4473C29.6567 24.2029 30.4277 25.1837 30.9329 26.3047L36.0891 21.2656C36.8905 21.2233 37.6677 20.976 38.3461 20.5473C39.0245 20.1186 39.5815 19.5229 39.9637 18.8172C40.3459 18.1116 40.5406 17.3196 40.529 16.5172C40.5175 15.7148 40.3001 14.9287 39.8977 14.2344ZM23.4915 1.92969C23.955 1.92969 24.4082 2.06715 24.7936 2.32468C25.179 2.58222 25.4794 2.94826 25.6568 3.37652C25.8342 3.80479 25.8806 4.27604 25.7902 4.73068C25.6998 5.18532 25.4765 5.60294 25.1488 5.93072C24.821 6.2585 24.4034 6.48172 23.9487 6.57215C23.4941 6.66259 23.0228 6.61617 22.5946 6.43878C22.1663 6.26139 21.8003 5.96098 21.5427 5.57555C21.2852 5.19013 21.1477 4.73699 21.1477 4.27344C21.1477 3.65184 21.3947 3.05569 21.8342 2.61616C22.2737 2.17662 22.8699 1.92969 23.4915 1.92969ZM17.2806 11.0703C17.396 10.8703 17.5497 10.6949 17.7329 10.5542C17.9161 10.4136 18.1252 10.3104 18.3482 10.2505C18.5713 10.1907 18.804 10.1753 19.033 10.2054C19.262 10.2355 19.4828 10.3104 19.6829 10.4258C19.883 10.5412 20.0583 10.6949 20.199 10.8781C20.3396 11.0613 20.4429 11.2704 20.5027 11.4935C20.5626 11.7165 20.5779 11.9492 20.5478 12.1782C20.5177 12.4072 20.4428 12.6281 20.3274 12.8281C20.2181 13.0343 20.0675 13.2157 19.885 13.3611C19.7024 13.5065 19.4919 13.6128 19.2665 13.6732C19.0411 13.7337 18.8057 13.7471 18.5749 13.7126C18.3441 13.6781 18.1229 13.5964 17.9251 13.4727C17.7249 13.3573 17.5495 13.2037 17.4087 13.0205C17.268 12.8373 17.1647 12.6282 17.1049 12.4051C17.045 12.182 17.0297 11.9492 17.0599 11.7202C17.09 11.4912 17.165 11.2703 17.2806 11.0703ZM37.6126 19.625C36.8045 20.0912 35.8443 20.2173 34.9433 19.9756C34.0422 19.7338 33.2741 19.144 32.8079 18.3359C32.3417 17.5279 32.2156 16.5677 32.4573 15.6666C32.6991 14.7656 33.2889 13.9975 34.097 13.5312C34.497 13.3002 34.9387 13.1502 35.3968 13.0899C35.8548 13.0296 36.3203 13.0602 36.7665 13.1799C37.2127 13.2996 37.631 13.5061 37.9973 13.7876C38.3637 14.0691 38.671 14.42 38.9016 14.8203C39.3529 15.6317 39.4707 16.5869 39.2301 17.4837C38.9895 18.3805 38.4094 19.1484 37.6126 19.625Z" fill="white"/>
</g>
</g>
</g>
</g>
</g>
</g>
</g>
<defs>
<clipPath id="clip0_6_124">
<rect width="50" height="50" fill="white"/>
</clipPath>
</defs>
</svg>
