<svg width="50" height="50" viewBox="0 0 50 50" fill="none" xmlns="http://www.w3.org/2000/svg">
<g id="science 1" clip-path="url(#clip0_6_150)">
<g id="Group">
<g id="Clip path group">
<mask id="mask0_6_150" style="mask-type:luminance" maskUnits="userSpaceOnUse" x="0" y="0" width="50" height="50">
<g id="SVGID_2_">
<path id="Vector" d="M0 0H50V50H0" fill="white"/>
</g>
</mask>
<g mask="url(#mask0_6_150)">
<g id="Group_2">
<g id="Group_3">
<g id="Clip path group_2">
<mask id="mask1_6_150" style="mask-type:luminance" maskUnits="userSpaceOnUse" x="0" y="0" width="50" height="50">
<g id="SVGID_4_">
<path id="Vector_2" d="M0 0H50V50H0" fill="white"/>
</g>
</mask>
<g mask="url(#mask1_6_150)">
<g id="Group_4">
<path id="Vector_3" d="M47.4 30.6C47 30 46.4 29.6 45.7 29.4C45 29.2 44.3 29.3 43.6 29.6L39.3 31.7999C39.6 32.4999 39.6 33.3 39.4 34C39.2 34.7 38.7 35.3 38 35.7L29.3 40.9C27.3 42.1 24.8 42.5 22.5 42L14.8 40L15.2 38.5L23 40.4C24.9 40.8 26.9 40.5 28.6 39.5L37.3 34.2999C37.7 34.0999 37.9 33.6999 38 33.2999C38.1 32.8999 38 32.4999 37.8 32.0999C37.3 31.2999 36.6 30.7 35.7 30.5C34.8 30.2 33.9 30.3 33.1 30.7L26.8 33.9C26.4 34.1 25.9 34.2 25.4 34.2C24.9 34.2 24.4 34.0999 24 33.7999L19.7 31.5C18.3 30.7 16.7 30.4 15.1 30.4C13.5 30.4 11.9 30.8999 10.6 31.7999L13 43.7999L14.3 43.5C15 43.4 15.7 43.3 16.4 43.4L26.2 44.5C28 44.7 29.9 44.2999 31.4 43.2999L47 32.7999C47.3 32.5999 47.6 32.1999 47.7 31.7999C47.7 31.3999 47.6 30.9 47.4 30.6Z" fill="white"/>
<path id="Vector_4" d="M2.29999 30.8L5.79999 47.6L11.9 46.3L8.39999 29.5L2.29999 30.8ZM5.39999 34.2L5.09999 32.7L6.59999 32.4L6.89999 33.9L5.39999 34.2Z" fill="white"/>
</g>
</g>
</g>
</g>
</g>
</g>
</g>
</g>
<g id="Group_5">
<g id="Group_6">
<path id="Vector_5" d="M26.7 6.20005C27.6389 6.20005 28.4 5.43893 28.4 4.50005C28.4 3.56116 27.6389 2.80005 26.7 2.80005C25.7611 2.80005 25 3.56116 25 4.50005C25 5.43893 25.7611 6.20005 26.7 6.20005Z" fill="white"/>
</g>
</g>
<g id="Group_7">
<g id="Group_8">
<path id="Vector_6" d="M30.2 3.8C30.9732 3.8 31.6 3.1732 31.6 2.4C31.6 1.6268 30.9732 1 30.2 1C29.4268 1 28.8 1.6268 28.8 2.4C28.8 3.1732 29.4268 3.8 30.2 3.8Z" fill="white"/>
</g>
</g>
<g id="Group_9">
<g id="Group_10">
<path id="Vector_7" d="M36.1 24.8L28.9 13.2V9.70005H31V7.30005H19.1V9.70005H21.2V13.2L14 24.8C13.7 25.3 13.6 25.9 13.6 26.5C13.6 28.4 15.2 30 17.1 30H33.1C35 30 36.6 28.4 36.6 26.5C36.5 25.8 36.3 25.3 36.1 24.8ZM19.5 20.5L23.6 13.9V9.70005H26.4V13.9L30.5 20.5H19.5Z" fill="white"/>
</g>
</g>
</g>
<defs>
<clipPath id="clip0_6_150">
<rect width="50" height="50" fill="white"/>
</clipPath>
</defs>
</svg>
