<svg width="248" height="47" viewBox="0 0 248 47" fill="none" xmlns="http://www.w3.org/2000/svg">
<g id="rewards">
<path d="M8.59031 29.2386V46.0817H0.0467529V12.2736H8.59031V17.5218C10.7262 14.0433 14.2657 11.7854 18.9646 11.7854V20.7561H16.7067C11.6416 20.7561 8.59031 22.7089 8.59031 29.2386Z" fill="#333333"/>
<path d="M39.2432 18.7423C35.1545 18.7423 31.9201 21.3664 31.2489 26.0043H47.2985C47.1765 21.5494 43.637 18.7423 39.2432 18.7423ZM55.2929 35.4632C53.4621 41.6878 47.8478 46.6309 39.4873 46.6309C29.6622 46.6309 22.5222 39.796 22.5222 29.1776C22.5222 18.4982 29.4791 11.7243 39.4873 11.7243C49.2514 11.7243 56.1472 18.3761 56.1472 28.4453C56.1472 29.5438 56.0862 30.6422 55.9031 31.7407H31.1878C31.615 36.7448 35.0324 39.5519 39.3042 39.5519C42.9657 39.5519 44.9796 37.7212 46.078 35.4632H55.2929Z" fill="#333333"/>
<path d="M68.5468 46.0817L58.5997 12.2736H67.2653L73.2458 38.0263L79.7145 12.2736H88.7462L95.0929 37.9653L101.073 12.2736H109.251L99.3647 46.0817H90.1498L83.9863 22.4648L77.8227 46.0817H68.5468Z" fill="#333333"/>
<path d="M111.677 29.0556C111.677 18.4982 118.511 11.7243 127.116 11.7243C132.547 11.7243 136.27 14.2874 138.284 17.0946V12.2736H146.888V46.0817H138.284V41.1386C136.27 44.0678 132.425 46.6309 127.055 46.6309C118.511 46.6309 111.677 39.613 111.677 29.0556ZM138.284 29.1776C138.284 22.7699 134.012 19.2305 129.313 19.2305C124.736 19.2305 120.403 22.6479 120.403 29.0556C120.403 35.4632 124.736 39.1248 129.313 39.1248C134.012 39.1248 138.284 35.5853 138.284 29.1776Z" fill="#333333"/>
<path d="M163.776 29.2386V46.0817H155.232V12.2736H163.776V17.5218C165.912 14.0433 169.451 11.7854 174.15 11.7854V20.7561H171.892C166.827 20.7561 163.776 22.7089 163.776 29.2386Z" fill="#333333"/>
<path d="M177.708 29.0556C177.708 18.4982 184.543 11.7243 193.208 11.7243C197.663 11.7243 201.935 13.7992 204.254 16.9725V0.922852H212.92V46.0817H204.254V41.0776C202.24 44.1899 198.457 46.6309 193.147 46.6309C184.543 46.6309 177.708 39.613 177.708 29.0556ZM204.315 29.1776C204.315 22.7699 200.043 19.2305 195.344 19.2305C190.767 19.2305 186.435 22.6479 186.435 29.0556C186.435 35.4632 190.767 39.1248 195.344 39.1248C200.043 39.1248 204.315 35.5853 204.315 29.1776Z" fill="#333333"/>
<path d="M247.505 36.4396C247.505 42.2371 242.44 46.6309 234.201 46.6309C225.719 46.6309 219.799 41.6878 219.433 35.4022H228.038C228.343 37.9653 230.723 39.9181 234.14 39.9181C237.497 39.9181 239.327 38.3925 239.327 36.4396C239.327 30.3981 220.226 34.2427 220.226 21.8546C220.226 16.2402 225.231 11.7243 233.591 11.7243C241.768 11.7243 246.711 16.1792 247.2 22.892H239.022C238.778 20.2679 236.703 18.4982 233.347 18.4982C230.174 18.4982 228.526 19.7797 228.526 21.7325C228.526 27.8961 247.261 24.0515 247.505 36.4396Z" fill="#333333"/>
</g>
</svg>
