<svg width="36" height="51" viewBox="0 0 36 51" fill="none" xmlns="http://www.w3.org/2000/svg">
<path id="Vector" d="M29.1633 31.297C27.2596 29.3857 25.0668 27.7862 22.6654 26.5573C25.0024 23.9776 26.4211 20.6978 26.7007 17.2282C26.9802 13.7586 26.105 10.294 24.2112 7.3734C22.3174 4.45284 19.5113 2.24023 16.2295 1.07994C12.9478 -0.0803556 9.37454 -0.123247 6.06589 0.957937C7.55769 2.33253 10.0128 4.96023 11.2915 8.19105C13.2914 8.29481 15.1745 9.16508 16.5496 10.6211C17.9246 12.077 18.6858 14.0068 18.6751 16.0094C18.6644 18.012 17.8826 19.9335 16.4921 21.3748C15.1016 22.816 13.2093 23.6661 11.2084 23.7484C10.8914 24.306 10.5412 24.844 10.1598 25.3596C10.1598 25.3596 14.1365 27.5994 16.8346 32.5245L17.1159 32.857C20.5132 34.1166 23.4439 36.3853 25.5147 39.3585C27.5855 42.3318 28.6972 45.8673 28.7008 49.4906V50.8758C30.5719 50.5644 32.2908 49.6527 33.598 48.2782C34.9051 46.9038 35.7296 45.1413 35.9467 43.257C34.8205 38.7255 32.4745 34.5892 29.1633 31.297ZM14.1834 27.674L14.0897 27.6612C14.1536 27.6442 14.2154 27.6293 14.2729 27.6101L14.1834 27.674ZM0.60376 27.6612L0.695398 27.674L0.789169 27.6101C0.729496 27.6314 0.665563 27.6463 0.60376 27.6634V27.6612Z" fill="white"/>
</svg>
