<svg width="43" height="51" viewBox="0 0 43 51" fill="none" xmlns="http://www.w3.org/2000/svg">
<path id="Vector" d="M34.6302 31.2972C32.7269 29.3865 30.5349 27.787 28.1345 26.5575C30.5602 23.8737 31.9904 20.4381 32.1856 16.8257C32.3807 13.2134 31.3291 9.64371 29.2067 6.71418C27.0842 3.78464 24.0198 1.67312 20.5265 0.733093C17.0332 -0.206931 13.323 0.0816055 10.017 1.5504C6.71104 3.01919 4.00995 5.57908 2.36595 8.80153C0.721943 12.024 0.234815 15.7134 0.986112 19.2521C1.73741 22.7908 3.68153 25.964 6.493 28.2405C9.30448 30.517 12.8127 31.7586 16.4302 31.7575C21.1332 31.7626 25.6421 33.6329 28.9677 36.9582C32.2934 40.2834 34.1643 44.7921 34.1699 49.495V50.9996H42.1639V49.495C42.1741 46.1142 41.5135 42.765 40.2203 39.6413C38.9272 36.5176 37.0271 33.6814 34.6302 31.2972ZM19.6504 27.6742L19.5588 27.6614C19.6206 27.6444 19.6824 27.6295 19.742 27.6103L19.6504 27.6742ZM16.4302 23.755C14.8897 23.755 13.3837 23.2982 12.1027 22.4423C10.8218 21.5864 9.82338 20.3699 9.23382 18.9465C8.64427 17.5232 8.49001 15.957 8.79056 14.4461C9.09112 12.9351 9.83298 11.5471 10.9223 10.4578C12.0117 9.36842 13.3996 8.62656 14.9106 8.32601C16.4216 8.02545 17.9878 8.17971 19.4111 8.76926C20.8344 9.35882 22.0509 10.3572 22.9068 11.6382C23.7627 12.9191 24.2196 14.4251 24.2196 15.9657C24.2179 18.0312 23.3968 20.0117 21.9364 21.4725C20.476 22.9332 18.4958 23.7549 16.4302 23.7572V23.755Z" fill="white"/>
</svg>
